HIERARCHY
ROOT Hips
{
	OFFSET 0.000000 0.000000 0.000000 
	CHANNELS 6 Xposition Yposition Zposition Zrotation Yrotation Xrotation
	JOINT LeftUpLeg
	{
		OFFSET 1.363060 -1.794630 0.839290 
		CHANNELS 3 Zrotation Yrotation Xrotation
		JOINT LeftLeg
		{
			OFFSET 2.448110 -6.726130 0.000000 
			CHANNELS 3 Zrotation Yrotation Xrotation
			JOINT LeftFoot
			{
				OFFSET 2.562200 -7.039590 0.000000 
				CHANNELS 3 Zrotation Yrotation Xrotation
				JOINT LeftToeBase
				{
					OFFSET 0.157640 -0.433110 2.322550 
					CHANNELS 3 Zrotation Yrotation Xrotation
					End Site
					{
						OFFSET 0.000000 0.000000 0.000000 
					}
				}
			}
		}
	}
	JOINT RightUpLeg
	{
		OFFSET -1.305520 -1.794630 0.839290 
		CHANNELS 3 Zrotation Yrotation Xrotation
		JOINT RightLeg
		{
			OFFSET -2.542530 -6.985550 0.000000 
			CHANNELS 3 Zrotation Yrotation Xrotation
			JOINT RightFoot
			{
				OFFSET -2.568260 -7.056230 0.000000 
				CHANNELS 3 Zrotation Yrotation Xrotation
				JOINT RightToeBase
				{
					OFFSET -0.164730 -0.452590 2.363150 
					CHANNELS 3 Zrotation Yrotation Xrotation
					End Site
					{
						OFFSET 0.000000 0.000000 0.000000 
					}
				}
			}
		}
	}
	JOINT Spine
	{
		OFFSET 0.028270 2.035590 -0.193380 
		CHANNELS 3 Zrotation Yrotation Xrotation
		JOINT Spine1
		{
			OFFSET 0.056720 2.048850 -0.042750 
			CHANNELS 3 Zrotation Yrotation Xrotation
			JOINT Neck1
			{
				OFFSET -0.054170 1.746240 0.172020 
				CHANNELS 3 Zrotation Yrotation Xrotation
				JOINT Head
				{
					OFFSET 0.104070 1.761360 -0.123970 
					CHANNELS 3 Zrotation Yrotation Xrotation
					End Site
					{
						OFFSET 0.000000 0.000000 0.000000 
					}
				}
			}
			JOINT LeftArm
			{
				OFFSET 3.362410 1.200890 -0.311210 
				CHANNELS 3 Zrotation Yrotation Xrotation
				JOINT LeftForeArm
				{
					OFFSET 4.983000 -0.000000 -0.000000 
					CHANNELS 3 Zrotation Yrotation Xrotation
					JOINT LeftHand
					{
						OFFSET 3.483560 -0.000000 -0.000000 
						CHANNELS 3 Zrotation Yrotation Xrotation
						JOINT LeftHandIndex1
						{
							OFFSET 0.715260 -0.000000 -0.000000 
							CHANNELS 3 Zrotation Yrotation Xrotation
							End Site
							{
								OFFSET 0.000000 0.000000 0.000000 
							}
						}
					}
				}
			}
			JOINT RightArm
			{
				OFFSET -3.136600 1.374050 -0.404650 
				CHANNELS 3 Zrotation Yrotation Xrotation
				JOINT RightForeArm
				{
					OFFSET -5.241900 -0.000000 -0.000000 
					CHANNELS 3 Zrotation Yrotation Xrotation
					JOINT RightHand
					{
						OFFSET -3.444170 -0.000000 -0.000000 
						CHANNELS 3 Zrotation Yrotation Xrotation
						JOINT RightHandIndex1
						{
							OFFSET -0.622530 -0.000000 -0.000000 
							CHANNELS 3 Zrotation Yrotation Xrotation
							End Site
							{
								OFFSET 0.000000 0.000000 0.000000 
							}
						}
					}
				}
			}
		}
	}
}
MOTION
Frames: 16
Frame Time: 0.041667
10.573825 17.817316 49.344952 179.953782 -1.505251 -179.389397 -18.652894 -25.387461 -0.182286 -2.432951 8.861753 25.287304 -5.785157 17.543275 -12.228484 0.000700 0.175300 0.481800 23.089047 14.244733 -3.953038 1.420518 -9.426991 28.908326 4.610316 -18.102331 -18.550023 -0.469100 -4.392900 12.184800 3.056645 0.130571 -2.648117 -3.451491 -0.445742 -10.810760 9.765077 16.507798 14.288553 0.172800 9.210600 5.215500 -90.045831 13.015800 26.370888 25.599548 -25.478542 -7.226788 1.067713 1.189254 4.139674 -7.125000 0.000000 0.000000 86.121970 -13.222825 45.254954 -24.000992 28.991335 -7.884612 0.467920 -0.352714 -1.467467 7.125000 0.000000 0.000000 
10.570034 17.821225 49.349454 179.837307 -1.391126 -179.341373 -18.615557 -24.657243 -0.619283 -2.414188 8.872224 25.272357 -5.860868 17.635358 -11.602167 0.017100 -0.844800 -2.321900 22.965363 14.355209 -3.998958 1.409822 -9.445281 28.956667 4.674671 -18.274183 -18.591707 -0.409800 -4.109600 11.385200 2.956823 0.201244 -2.645062 -3.467263 -0.413249 -10.796119 9.755901 16.440891 14.512602 0.193200 9.197800 5.326600 -89.560248 11.929847 26.569421 25.054194 -24.894344 -6.930952 1.122022 1.194136 4.687399 -7.125000 0.000000 0.000000 86.045212 -13.205713 45.269864 -24.060172 29.054957 -7.914637 0.471380 -0.347476 -1.456673 7.125000 0.000000 0.000000 
10.566005 17.824306 49.351469 179.868302 -1.440628 -179.259752 -18.570805 -24.690572 -0.727787 -2.398985 8.896403 25.330915 -5.872971 17.659489 -11.578153 0.023300 -0.986100 -2.710500 22.956996 14.310255 -4.077654 1.424405 -9.430697 28.892574 4.701626 -18.326165 -18.545311 -0.415600 -4.137800 11.464700 3.006113 0.180566 -2.655676 -3.485976 -0.426310 -10.741314 9.949411 16.485634 14.534000 0.277800 9.226700 5.315500 -89.767025 12.332102 25.888860 25.486547 -25.403117 -7.167062 1.186297 1.134038 5.940476 -7.125000 0.000000 0.000000 85.929490 -13.083565 45.286145 -24.041786 29.032488 -7.906666 0.474804 -0.346575 -1.316384 7.125000 0.000000 0.000000 
10.562451 17.826913 49.353957 -179.756674 -1.483519 -179.130043 -18.039840 -24.470540 -1.086171 -2.376668 8.904309 25.337557 -5.832923 17.477875 -11.188438 0.028500 -1.088900 -2.993400 23.326371 14.295850 -4.182361 1.443441 -9.440394 28.873987 4.706528 -18.406916 -18.661473 -0.419000 -4.154700 11.512400 3.188071 0.194848 -2.721868 -3.662806 -0.462063 -10.674744 9.835215 16.478322 14.568085 0.243600 9.222700 5.355700 -89.701212 12.096266 25.502175 25.449955 -25.386861 -7.144716 1.247039 1.097809 6.938236 -7.125000 0.000000 0.000000 85.901087 -12.934010 45.251480 -23.985062 28.969209 -7.879684 0.478404 -0.347255 -1.085578 7.125000 0.000000 0.000000 
10.557474 17.822647 49.351824 -179.975890 -1.363341 -179.297964 -18.340012 -24.267760 -0.991377 -2.366812 8.932254 25.444626 -5.663668 17.149415 -11.370593 0.042300 -1.327500 -3.650300 23.099579 14.230802 -4.026055 1.439292 -9.409099 28.850031 4.703343 -18.378781 -18.671120 -0.394000 -4.030300 11.161900 3.007633 0.241168 -2.564952 -3.657691 -0.422340 -10.679459 9.620936 16.461809 14.550180 0.163600 9.208200 5.389700 -89.506066 11.688973 24.772370 25.373418 -25.360967 -7.116381 1.366698 1.038165 8.864608 -7.125000 0.000000 0.000000 85.912707 -12.817385 45.185509 -23.941634 28.928033 -7.861962 0.475940 -0.347795 -0.788056 7.125000 0.000000 0.000000 
10.556645 17.822173 49.356564 -179.958557 -1.449134 -179.311477 -18.372915 -24.532617 -0.883830 -2.365179 8.942011 25.478544 -5.645886 17.134142 -11.548278 0.027100 -1.062200 -2.920000 23.105773 14.193144 -4.036271 1.449670 -9.397991 28.821713 4.650416 -18.272641 -18.778036 -0.411600 -4.118400 11.409900 3.014327 0.214536 -2.581795 -3.667154 -0.440045 -10.723406 9.585901 16.504409 14.496221 0.150300 9.223400 5.371600 -89.438511 11.292574 22.909554 25.432380 -25.577818 -7.210707 1.657879 0.855075 12.533508 -7.125000 0.000000 0.000000 85.852328 -12.795602 45.211108 -23.943897 28.934036 -7.867484 0.474543 -0.346789 -0.472178 7.125000 0.000000 0.000000 
10.558659 17.823595 49.365094 -179.849019 -1.705398 -179.192728 -18.190031 -24.688419 -1.011690 -2.359984 8.936227 25.422571 -5.820103 17.472677 -11.249531 0.055700 -1.522900 -4.188800 23.199646 14.112444 -4.227369 1.459394 -9.417218 28.826429 4.699625 -18.448377 -18.903569 -0.388000 -3.999700 11.075900 3.145628 0.133772 -2.765952 -3.651602 -0.493124 -10.811269 9.580486 16.528682 14.525323 0.153200 9.235500 5.372100 -89.602188 11.369913 23.774784 25.269454 -25.320152 -7.100591 1.454104 1.021387 10.984322 -7.125000 0.000000 0.000000 85.766411 -12.860331 45.241868 -23.986837 28.979822 -7.889520 0.475028 -0.345321 -0.351312 7.125000 0.000000 0.000000 
10.551432 17.820278 49.358933 -179.978158 -1.558108 -179.208504 -18.461160 -24.801807 -0.831904 -2.368066 8.942858 25.441201 -5.981324 17.894909 -11.515177 0.066000 -1.657700 -4.560600 23.021812 14.032006 -4.240700 1.447583 -9.414959 28.826903 4.767151 -18.548303 -18.712414 -0.325700 -3.668100 10.144700 3.078978 0.216367 -2.660673 -3.663002 -0.447015 -10.685574 9.495660 16.542104 14.488483 0.128200 9.235800 5.377500 -89.584924 11.265525 23.647139 25.394971 -25.476954 -7.176035 1.490666 0.992228 10.515592 -7.125000 0.000000 0.000000 85.743014 -12.803742 45.139094 -24.109293 29.105583 -7.945589 0.474385 -0.339642 -0.767990 7.125000 0.000000 0.000000 
10.554038 17.826676 49.363909 -179.907459 -1.668299 -179.113300 -18.274975 -24.694198 -1.051262 -2.357341 8.945626 25.430623 -5.969250 17.819118 -11.248316 0.074500 -1.760500 -4.844300 23.101988 14.023250 -4.343214 1.452691 -9.424207 28.826169 4.784501 -18.609354 -18.741860 -0.341700 -3.756400 10.392300 3.110468 0.170501 -2.618779 -3.668150 -0.471275 -10.591831 9.310776 16.602165 14.334827 0.060200 9.247800 5.357600 -89.468101 11.171724 23.554908 25.463198 -25.559065 -7.212309 1.489350 0.990483 11.626833 -7.125000 0.000000 0.000000 85.743399 -12.634168 45.030848 -24.292931 29.297534 -8.029083 0.476109 -0.329762 -1.482490 7.125000 0.000000 0.000000 
10.553209 17.831178 49.368530 -179.902146 -1.693151 -179.011204 -18.189261 -24.671296 -1.183911 -2.360075 8.935280 25.394496 -5.875877 17.583644 -11.123379 0.049600 -1.437900 -3.954600 23.080080 14.053293 -4.470930 1.449486 -9.442797 28.846140 4.794346 -18.622578 -18.705405 -0.366200 -3.887000 10.759100 3.103505 0.159784 -2.629128 -3.682614 -0.480828 -10.531718 9.124855 16.655611 14.228370 -0.011100 9.260300 5.347200 -89.423755 11.084125 23.350591 25.617175 -25.751720 -7.307585 1.504232 0.981674 11.613764 -7.125000 0.000000 0.000000 85.699798 -12.550206 45.061268 -24.430885 29.442176 -8.094524 0.476136 -0.323501 -1.841238 7.125000 0.000000 0.000000 
10.551195 17.829756 49.369360 -179.958985 -1.684857 -179.014086 -18.246412 -24.645478 -1.193052 -2.358789 8.936808 25.400001 -5.818132 17.454837 -11.092795 0.052500 -1.478400 -4.066200 23.000809 14.066282 -4.477236 1.445255 -9.443038 28.851818 4.769041 -18.539434 -18.672408 -0.394300 -4.032100 11.167000 3.071132 0.158856 -2.624308 -3.679608 -0.480943 -10.517934 9.001000 16.689412 14.267767 -0.054300 9.277500 5.382200 -89.410759 10.987699 22.828711 25.568197 -25.737239 -7.301835 1.556136 0.963014 13.479519 -7.125000 0.000000 0.000000 85.637925 -12.564180 45.196550 -24.509432 29.525958 -8.135186 0.474847 -0.319884 -1.871006 7.125000 0.000000 0.000000 
10.551787 17.827268 49.367464 -179.986032 -1.673749 -179.076090 -18.230037 -24.288521 -1.324212 -2.345664 8.947261 25.424844 -5.793604 17.373423 -10.850160 0.110100 -2.139500 -5.891200 22.991240 14.078660 -4.391029 1.437197 -9.439363 28.874177 4.693519 -18.343177 -18.673106 -0.423100 -4.175000 11.569500 3.064315 0.151425 -2.614577 -3.664837 -0.481227 -10.538796 8.906308 16.736916 14.300056 -0.092300 9.302600 5.404900 -89.443362 10.923634 22.642037 25.584479 -25.773812 -7.321143 1.589144 0.943728 13.149807 -7.125000 0.000000 0.000000 85.658109 -12.553201 45.238364 -24.481889 29.499473 -8.122659 0.475402 -0.321623 -1.699472 7.125000 0.000000 0.000000 
10.552735 17.825372 49.365687 -179.985236 -1.676692 -179.128466 -18.201729 -24.029353 -1.407861 -2.338490 8.949917 25.430576 -5.791152 17.347713 -10.676596 0.213800 -2.977100 -8.214900 23.008696 14.064012 -4.342560 1.427742 -9.445029 28.911018 4.647165 -18.230904 -18.689544 -0.423100 -4.174900 11.569200 3.111939 0.157514 -2.623688 -3.642112 -0.476053 -10.569603 8.869212 16.763987 14.327751 -0.107500 9.316700 5.409500 -89.524132 10.972813 22.677173 25.552151 -25.726890 -7.297893 1.565286 0.959690 13.550348 -7.125000 0.000000 0.000000 85.673195 -12.546264 45.218915 -24.426481 29.442688 -8.095360 0.474181 -0.325931 -1.527576 7.125000 0.000000 0.000000 
10.552261 17.824780 49.366753 179.994760 -1.679678 -179.140088 -18.312353 -24.356984 -1.198263 -2.356580 8.934507 25.391965 -5.876658 17.576495 -10.941209 0.187600 -2.789700 -7.693800 22.975688 14.035873 -4.373558 1.418580 -9.457861 28.939450 4.675811 -18.282810 -18.620601 -0.411400 -4.117600 11.407700 3.145667 0.176277 -2.638412 -3.613325 -0.466938 -10.594880 8.883027 16.766255 14.372454 -0.094900 9.320400 5.420600 -89.543525 10.893881 22.581710 25.590498 -25.790666 -7.334652 1.606319 0.935703 12.917265 -7.125000 0.000000 0.000000 85.659743 -12.582540 45.217225 -24.351318 29.366669 -8.062302 0.470476 -0.331330 -1.075025 7.125000 0.000000 0.000000 
10.551076 17.827150 49.368649 179.929668 -1.687636 -179.133829 -18.435089 -24.561219 -1.070682 -2.371222 8.924200 25.364609 -5.917025 17.700332 -11.147365 0.143000 -2.437300 -6.716000 22.896495 14.027181 -4.403192 1.409167 -9.465080 28.953017 4.697497 -18.290509 -18.480838 -0.428200 -4.199600 11.638900 3.122952 0.192001 -2.652780 -3.592635 -0.455422 -10.616936 8.836907 16.791002 14.329167 -0.113900 9.327900 5.409600 -89.528133 10.926980 22.883919 25.481022 -25.644859 -7.266861 1.546080 0.986020 13.525519 -7.125000 0.000000 0.000000 85.682242 -12.575491 45.193489 -24.272906 29.286736 -8.026772 0.469643 -0.335992 -0.650088 7.125000 0.000000 0.000000 
10.549892 17.831178 49.368056 179.896118 -1.732510 -179.064630 -18.357407 -24.218004 -1.323915 -2.363794 8.927291 25.360356 -5.831136 17.470784 -10.884311 0.199900 -2.879100 -7.942400 22.843583 14.034311 -4.457686 1.413611 -9.467218 28.952991 4.690296 -18.302279 -18.598821 -0.443600 -4.273600 11.847800 3.118807 0.205116 -2.700945 -3.577208 -0.447641 -10.595135 8.754913 16.812915 14.314931 -0.145300 9.335400 5.413500 -89.494137 10.999917 23.142217 25.558764 -25.722657 -7.307493 1.539134 0.982142 13.383219 -7.125000 0.000000 0.000000 85.724134 -12.498320 45.113367 -24.348640 29.365034 -8.058654 0.473250 -0.329698 -1.232666 7.125000 0.000000 0.000000 
